<mxfile host="app.diagrams.net" modified="2024-04-25T17:22:12.547Z" agent="Mozilla/5.0 (Windows NT 10.0; Win64; x64) AppleWebKit/537.36 (KHTML, like Gecko) Chrome/124.0.0.0 Safari/537.36" etag="VGWtEp9iaTx6xYhbJxcV" version="24.3.0" type="device" pages="2">
  <diagram name="Página-1" id="nPw0Zk6N9-Jp2u-i9P5S">
    <mxGraphModel dx="1701" dy="514" grid="0" gridSize="10" guides="1" tooltips="1" connect="1" arrows="1" fold="1" page="0" pageScale="1" pageWidth="827" pageHeight="1169" math="0" shadow="0">
      <root>
        <mxCell id="0" />
        <mxCell id="1" parent="0" />
        <mxCell id="F1OtU4to6LqBj1eCm5NG-1" value="Condomínio&lt;div&gt;A&lt;/div&gt;" style="rounded=0;whiteSpace=wrap;html=1;" vertex="1" parent="1">
          <mxGeometry x="-207" y="105" width="160" height="80" as="geometry" />
        </mxCell>
        <mxCell id="cAUWFIxl775-NZIVlymY-1" value="Condomínio&lt;div&gt;B&lt;/div&gt;" style="rounded=0;whiteSpace=wrap;html=1;" vertex="1" parent="1">
          <mxGeometry x="91" y="107" width="160" height="80" as="geometry" />
        </mxCell>
        <mxCell id="cAUWFIxl775-NZIVlymY-2" value="Condomínio&lt;div&gt;C&lt;/div&gt;" style="rounded=0;whiteSpace=wrap;html=1;" vertex="1" parent="1">
          <mxGeometry x="389" y="107" width="160" height="80" as="geometry" />
        </mxCell>
      </root>
    </mxGraphModel>
  </diagram>
  <diagram id="ew-pJYDtKjUswustRE1X" name="Página-2">
    <mxGraphModel dx="1886" dy="796" grid="0" gridSize="10" guides="1" tooltips="1" connect="1" arrows="1" fold="1" page="0" pageScale="1" pageWidth="827" pageHeight="1169" math="0" shadow="0">
      <root>
        <mxCell id="0" />
        <mxCell id="1" parent="0" />
      </root>
    </mxGraphModel>
  </diagram>
</mxfile>
